<svg id="Capa_1" data-name="Capa 1" xmlns="http://www.w3.org/2000/svg" viewBox="0 0 792 612"><defs><style>.cls-1{fill:#fff;}.cls-2{fill:#6b6835;}.cls-3{fill:#e39ca0;}.cls-4{fill:#d7812a;}</style></defs><path class="cls-1" d="M255.83,130.86c-5.5.69-10.88.56-15.72,2.11-12.89,4.11-20.36,13.29-22,26.76-.61,5.09-.28,10.31-.28,15.47q-.06,65.87-.07,131.73,0,51.36,0,102.72,0,47.51,0,95a30.82,30.82,0,0,0,6.58,19.52c6.59,8.41,15.35,12.48,26,12.49q44.36,0,88.7,0,57.3,0,114.6-.06,68.61,0,137.23.06a31.78,31.78,0,0,0,32.2-32.19c0-6.78,0-13.57,0-20.36q0-40.47,0-80.95c0-.54-.07-1.08-.1-1.62l-.49-.19a4.57,4.57,0,0,1-.4.72c-6.28,7.68-12.58,15.34-18.79,23.07a5,5,0,0,0-.89,3q-.07,32.52,0,65.05a19.59,19.59,0,0,1-4.79,13.09c-5.46,6.44-12.58,9.26-20.88,9.27q-38.55,0-77.08,0c-4.11,0-8.22.28-12.32.27-5.29,0-10.57-.27-15.86-.27q-61.14,0-122.29,0c-28.42,0-56.83.05-85.24,0-9,0-16.55-3.21-21.83-10.85-1.54-2.23-3.05-4.47-3.17-7.34-.1-2.48-.4-5-.4-7.45q0-56.79,0-113.56V264.2c0-4.21,0-8.42,0-12.63q0-13.24.06-26.49c0-.11.13-.22.26-.42H602.48v56.53a3.35,3.35,0,0,0,.62-.4q9.63-11.73,19.22-23.49a4.14,4.14,0,0,0,.76-2.39c.07-5.36,0-10.72,0-16.08q0-37.41,0-74.83a32.33,32.33,0,0,0-7.38-21c-6.17-7.72-14.4-10.89-23.86-11.66-2.2-.18-4.43,0-6.82,0v2.33c0,7.27,0,14.54,0,21.82a16.29,16.29,0,0,0,.63,4.39,20.08,20.08,0,0,1-8.38,22.63c-7.07,4.75-16.83,4.14-23.76-1.49a20.17,20.17,0,0,1-5.81-22.73,12.74,12.74,0,0,0,.78-4.32c.07-6.05,0-12.1,0-18.15v-4.33H511.86c0,5.17,0,10.19,0,15.21,0,5.27-.54,10.6,1.46,15.69a4.84,4.84,0,0,1,.16,1.21A20.1,20.1,0,1,1,475,157.8a7.12,7.12,0,0,0,.46-2.56c0-7.25,0-14.51,0-21.77,0-.65-.07-1.31-.11-2H438.68v2.48c0,6.39-.08,12.78.06,19.17a59.18,59.18,0,0,0,1,7,35.19,35.19,0,0,1,.72,5.82c-.2,8.41-4.21,14.56-11.82,18s-14.85,2.36-21.14-3-8.37-12.29-6.39-20.38a23.17,23.17,0,0,0,1.07-4.92c.12-7.4.06-14.81.05-22.22,0-.59-.08-1.18-.13-1.82H365.47v7.8c0,4-.05,8.11,0,12.16,0,2.08-.19,4.33.49,6.21a21,21,0,0,1-.35,16.44,20.14,20.14,0,0,1-24.82,10.47c-9.51-3.22-15.53-13.86-12.87-23.46a35.46,35.46,0,0,0,1.1-9.62c0-6,0-12,0-17.95v-2.06H292.44a7.61,7.61,0,0,0-.13.94c0,7.68,0,15.36,0,23a5.55,5.55,0,0,0,.55,2.13,20.12,20.12,0,0,1-21.82,27.82c-10.77-1.91-18.36-12.16-16.44-22.79a58.46,58.46,0,0,0,1.24-11.25C255.76,144.8,255.83,138.21,255.83,130.86ZM504.27,276.08v46.28h46.17V276.08ZM319.18,396.39v-46.2H273v46.2ZM273,426.63v46.21H319.2V426.63Zm201.46-150.5H428.18v46.25h46.24Zm-77.6,46.25V276.14c-.45-.05-.78-.11-1.1-.12-14.27,0-28.53,0-42.8,0-2,0-2.51.91-2.51,2.74,0,13.86,0,27.71,0,41.57,0,.66.06,1.33.1,2.08Zm-.06,150.46V426.62H350.57v46.22Zm.05-76.46V350.19H350.62v46.19ZM287,128.59h0c0-9.64,0-19.29,0-28.94a17.61,17.61,0,0,0-.4-3.83C284.58,87,275.41,82.54,268,86.88c-4.75,2.8-6.79,7.26-6.82,12.65,0,7.18,0,14.35,0,21.53q0,18.54,0,37.08c0,8.44,6.84,14.82,14.66,13.7,6.18-.89,11-6.82,11.05-13.7C287,148.29,287,138.44,287,128.59Zm47.42-.22c0,9.79,0,19.57,0,29.35,0,6.45,3.72,12,9.05,13.67,8.05,2.58,16.31-3.55,16.62-12.43.15-4.34,0-8.68,0-13,0-6.64-.16-13.28-.15-19.92,0-8.89.19-17.79.09-26.68a17.49,17.49,0,0,0-1.39-6.49,12.12,12.12,0,0,0-17-6.2c-5,2.66-7.21,7.23-7.26,12.78C334.32,109.08,334.38,118.73,334.38,128.37Zm73.31,0c0,7.95,0,15.9,0,23.86,0,2.64-.08,5.3.14,7.93a12.78,12.78,0,0,0,16.63,11.16c5.21-1.73,8.87-7.33,8.87-13.61q0-28.86,0-57.7a19.75,19.75,0,0,0-.36-3.84c-1.71-8.78-10.6-13.56-18.05-9.52-4.93,2.68-7.26,7.1-7.24,12.77C407.72,109.07,407.69,118.72,407.69,128.37Zm98.78.34h0c0-9.29,0-18.59,0-27.88a29.33,29.33,0,0,0-.45-5c-1.52-8.38-10.56-13-17.92-9.19a13.27,13.27,0,0,0-7,9.73,19.26,19.26,0,0,0-.24,3.65c0,13,.12,25.94.14,38.91,0,6.51-.18,13-.13,19.53.05,7.69,5.91,13.7,13.05,13.55,6.83-.13,12.49-6.19,12.52-13.51C506.5,148.54,506.47,138.63,506.47,128.71Zm47.62-.21h0c0,9.51,0,19,0,28.54a22.51,22.51,0,0,0,.62,5.43,12.38,12.38,0,0,0,18.43,7.69c4.65-2.83,6.53-7.29,6.54-12.58q0-25.8,0-51.59a69.16,69.16,0,0,0-.29-9.34c-1.25-9.06-10.52-14.11-18.22-10-4.86,2.63-7,7-7.07,12.45C554.06,108.92,554.09,118.71,554.09,128.5Z"/><path class="cls-2" d="M255.83,130.86c0,7.35-.07,13.94,0,20.52a58.46,58.46,0,0,1-1.24,11.25c-1.92,10.63,5.67,20.88,16.44,22.79a20.12,20.12,0,0,0,21.82-27.82,5.55,5.55,0,0,1-.55-2.13c0-7.68,0-15.36,0-23a7.61,7.61,0,0,1,.13-.94H329v2.06c0,6,0,12,0,17.95a35.46,35.46,0,0,1-1.1,9.62c-2.66,9.6,3.36,20.24,12.87,23.46a20.14,20.14,0,0,0,24.82-10.47,21,21,0,0,0,.35-16.44c-.68-1.88-.46-4.13-.49-6.21-.06-4.05,0-8.11,0-12.16v-7.8h36.62c.05.64.13,1.23.13,1.82,0,7.41.07,14.82-.05,22.22a23.17,23.17,0,0,1-1.07,4.92c-2,8.09.12,15,6.39,20.38s13.59,6.43,21.14,3,11.62-9.58,11.82-18a35.19,35.19,0,0,0-.72-5.82,59.18,59.18,0,0,1-1-7c-.14-6.39-.05-12.78-.06-19.17v-2.48h36.64c0,.71.11,1.37.11,2,0,7.26,0,14.52,0,21.77a7.12,7.12,0,0,1-.46,2.56,20.1,20.1,0,1,0,38.53,5.8,4.84,4.84,0,0,0-.16-1.21c-2-5.09-1.43-10.42-1.46-15.69,0-5,0-10,0-15.21h36.67v4.33c0,6.05.1,12.1,0,18.15a12.74,12.74,0,0,1-.78,4.32A20.17,20.17,0,0,0,553.59,181c6.93,5.63,16.69,6.24,23.76,1.49a20.08,20.08,0,0,0,8.38-22.63,16.29,16.29,0,0,1-.63-4.39c-.07-7.28,0-14.55,0-21.82v-2.33c2.39,0,4.62-.15,6.82,0,9.46.77,17.69,3.94,23.86,11.66a32.33,32.33,0,0,1,7.38,21q-.07,37.41,0,74.83c0,5.36,0,10.72,0,16.08a4.14,4.14,0,0,1-.76,2.39q-9.55,11.79-19.22,23.49a3.35,3.35,0,0,1-.62.4V224.66H238.82c-.13.2-.26.31-.26.42q0,13.24-.06,26.49c0,4.21,0,8.42,0,12.63V376.31q0,56.78,0,113.56c0,2.48.3,5,.4,7.45.12,2.87,1.63,5.11,3.17,7.34,5.28,7.64,12.85,10.82,21.83,10.85,28.41.07,56.82,0,85.24,0q61.14,0,122.29,0c5.29,0,10.57.26,15.86.27,4.1,0,8.21-.26,12.32-.27q38.54,0,77.08,0c8.3,0,15.42-2.83,20.88-9.27a19.59,19.59,0,0,0,4.79-13.09q0-32.52,0-65.05a5,5,0,0,1,.89-3c6.21-7.73,12.51-15.39,18.79-23.07a4.57,4.57,0,0,0,.4-.72l.49.19c0,.54.1,1.08.1,1.62q0,40.47,0,80.95c0,6.79,0,13.58,0,20.36a31.78,31.78,0,0,1-32.2,32.19q-68.61,0-137.23-.06-57.3,0-114.6.06-44.35,0-88.7,0c-10.65,0-19.41-4.08-26-12.49a30.82,30.82,0,0,1-6.58-19.52q0-47.52,0-95,0-51.36,0-102.72,0-65.87.07-131.73c0-5.16-.33-10.38.28-15.47,1.62-13.47,9.09-22.65,22-26.76C245,131.42,250.33,131.55,255.83,130.86Z"/><path class="cls-3" d="M504.27,276.08h46.17v46.28H504.27Z"/><path class="cls-3" d="M319.18,396.39H273v-46.2h46.22Z"/><path class="cls-3" d="M273,426.63H319.2v46.21H273Z"/><path class="cls-3" d="M474.42,276.13v46.25H428.18V276.13Z"/><path class="cls-3" d="M396.82,322.38H350.55c0-.75-.1-1.42-.1-2.08,0-13.86,0-27.71,0-41.57,0-1.83.49-2.74,2.51-2.74,14.27.05,28.53,0,42.8,0,.32,0,.65.07,1.1.12Z"/><path class="cls-3" d="M396.76,472.84H350.57V426.62h46.19Z"/><path class="cls-3" d="M396.81,396.38H350.62V350.19h46.19Z"/><path class="cls-4" d="M287,128.59c0,9.85,0,19.7,0,29.55,0,6.88-4.87,12.81-11.05,13.7-7.82,1.12-14.65-5.26-14.66-13.7q0-18.54,0-37.08c0-7.18-.08-14.35,0-21.53,0-5.39,2.07-9.85,6.82-12.65,7.37-4.34,16.54.13,18.49,8.94a17.61,17.61,0,0,1,.4,3.83c0,9.65,0,19.3,0,28.94Z"/><path class="cls-4" d="M334.38,128.37c0-9.64-.06-19.29,0-28.94.05-5.55,2.22-10.12,7.26-12.78a12.12,12.12,0,0,1,17,6.2A17.49,17.49,0,0,1,360,99.34c.1,8.89-.08,17.79-.09,26.68,0,6.64.11,13.28.15,19.92,0,4.34.13,8.68,0,13-.31,8.88-8.57,15-16.62,12.43-5.33-1.71-9-7.22-9.05-13.67C334.36,147.94,334.38,138.16,334.38,128.37Z"/><path class="cls-4" d="M407.69,128.37c0-9.65,0-19.3,0-28.95,0-5.67,2.31-10.09,7.24-12.77,7.45-4,16.34.74,18.05,9.52a19.75,19.75,0,0,1,.36,3.84q0,28.84,0,57.7c0,6.28-3.66,11.88-8.87,13.61a12.78,12.78,0,0,1-16.63-11.16c-.22-2.63-.14-5.29-.14-7.93C407.68,144.27,407.69,136.32,407.69,128.37Z"/><path class="cls-4" d="M506.47,128.71c0,9.92,0,19.83,0,29.75,0,7.32-5.69,13.38-12.52,13.51-7.14.15-13-5.86-13.05-13.55-.05-6.51.14-13,.13-19.53,0-13-.1-25.94-.14-38.91a19.26,19.26,0,0,1,.24-3.65,13.27,13.27,0,0,1,7-9.73c7.36-3.85,16.4.81,17.92,9.19a29.33,29.33,0,0,1,.45,5c0,9.29,0,18.59,0,27.88Z"/><path class="cls-4" d="M554.09,128.5c0-9.79,0-19.58,0-29.36,0-5.44,2.21-9.82,7.07-12.45,7.7-4.15,17,.9,18.22,10a69.16,69.16,0,0,1,.29,9.34q0,25.8,0,51.59c0,5.29-1.89,9.75-6.54,12.58a12.38,12.38,0,0,1-18.43-7.69,22.51,22.51,0,0,1-.62-5.43c-.06-9.52,0-19,0-28.54Z"/><rect class="cls-4" x="451.01" y="332.41" width="50.6" height="140.46" rx="8.48" transform="translate(-140.18 497.12) rotate(-48.92)"/><rect class="cls-4" x="458.68" y="322.26" width="262.57" height="56.18" rx="9.41" transform="translate(-74.94 519.78) rotate(-45)"/></svg>