<svg id="Capa_1" data-name="Capa 1" xmlns="http://www.w3.org/2000/svg" viewBox="0 0 337.16 332.74" >
<defs>
    <style>

    </style>
</defs>
<path  d="M476.26,547.13,364.47,439.7,474.1,330.07a3.5,3.5,0,0,0,0-4.94L423.88,274.9a3.51,3.51,0,0,0-4.95,0L308.21,385.63,195.3,277.12a3.51,3.51,0,0,0-4.94.1l-49.22,51.22a3.5,3.5,0,0,0,.1,4.94L253,440.81,143.4,550.44a3.5,3.5,0,0,0,0,4.94l50.22,50.23a3.51,3.51,0,0,0,4.95,0L309.29,494.88l112.9,108.51a3.52,3.52,0,0,0,4.95-.1l49.22-51.22A3.51,3.51,0,0,0,476.26,547.13Z" transform="translate(-140.17 -273.88)"/></svg>