<svg id="Capa_1" data-name="Capa 1" xmlns="http://www.w3.org/2000/svg" viewBox="0 0 792 612"><defs><style>.cls-1{fill:#d7cf2a;}.cls-2{fill:#d7812a;}.cls-11,.cls-12,.cls-13,.cls-2,.cls-3,.cls-4,.cls-5,.cls-7,.cls-8,.cls-9{stroke:#6b6835;stroke-miterlimit:10;}.cls-3,.cls-6{fill:#e8eaed;}.cls-3,.cls-7{stroke-width:3px;}.cls-4{fill:#b8c2d1;}.cls-5,.cls-7,.cls-9{fill:none;}.cls-12,.cls-13,.cls-5,.cls-8{stroke-width:2px;}.cls-8{fill:#c6c45d;}.cls-10{fill:#6b6835;}.cls-11{fill:#e2af9c;}.cls-12{fill:#e39ca0;}.cls-13{fill:#e9d7c9;}</style></defs><circle class="cls-1" cx="427.53" cy="300.42" r="224.18"/><path class="cls-2" d="M644.91,510.81c-22.39,7.47-44.08-4.59-64-13.6-32-14.46-64.51-29-99-36.55a313.21,313.21,0,0,0-154.68,5.46c-42.52,12.52-92.76,52.75-138.64,44.19-14.57-2.72-28.26-11.75-34.87-25-13.67-27.48,9.67-60.37,39.21-60.37h452c19.89,0,38.18,15.86,40.41,35.75C688.08,485.38,666.3,503.66,644.91,510.81Z"/><rect class="cls-3" x="337.83" y="195.74" width="144.37" height="219.35" rx="17.64"/><rect class="cls-4" x="337.83" y="230.8" width="144.37" height="156.17"/><line class="cls-5" x1="394.47" y1="215.9" x2="427.53" y2="215.9"/><ellipse class="cls-5" cx="411" cy="399.49" rx="6.61" ry="7.15"/><rect class="cls-6" x="480.22" y="234.48" width="48.64" height="172.84"/><path class="cls-7" d="M485.05,231.9a32.66,32.66,0,0,0,35.21,0"/><path class="cls-7" d="M520.26,412.48a32.61,32.61,0,0,0-35.21,0"/><rect class="cls-2" x="519.19" y="221.59" width="9.66" height="199.95"/><rect class="cls-2" x="475.38" y="221.59" width="9.66" height="199.95"/><line class="cls-7" x1="508.34" y1="263.89" x2="509.63" y2="380.49"/><line class="cls-7" x1="496.37" y1="304.88" x2="497.02" y2="363.17"/><path class="cls-8" d="M596.82,385.42V342.2a6.89,6.89,0,0,1,6.89-6.9h16.18V312.14h-84v87.21a19.46,19.46,0,0,0,19.46,19.46h45.06a19.45,19.45,0,0,0,19.45-19.46v-7H603.71A6.88,6.88,0,0,1,596.82,385.42Z"/><path class="cls-8" d="M631.76,335.3h-28a6.89,6.89,0,0,0-6.89,6.9v43.22a6.88,6.88,0,0,0,6.89,6.89H635a18.85,18.85,0,0,0,18.85-18.85V357.37A22.07,22.07,0,0,0,631.76,335.3Zm17.1,30.12A18.85,18.85,0,0,1,630,384.27h-3.22a6.9,6.9,0,0,1-6.9-6.9V350.24a6.9,6.9,0,0,1,6.9-6.89,22.07,22.07,0,0,1,22.07,22.07Z"/><line class="cls-9" x1="544.8" y1="349.74" x2="544.8" y2="401.22"/><path class="cls-10" d="M571.47,304.33a10.7,10.7,0,0,1-6.79-4.11c-1.62-2.34-1.6-5-.8-7.64,1.84-6.12,6.85-12.13,3.46-18.67-.66-1.29-2.61-.15-1.94,1.14,1.79,3.45.44,7.26-1,10.56s-3.19,6.49-3.28,10.09c-.16,5.66,4.62,9.71,9.81,10.8,1.41.29,2-1.87.59-2.17Z"/><path class="cls-10" d="M593.22,305.22a11.6,11.6,0,0,1-7.89-9.17c-.83-5.44,2.2-10.73,4.87-15.22,2.55-4.3,5.35-8.62,6.41-13.57a24.83,24.83,0,0,0-.66-12.77,28.9,28.9,0,0,0-8.36-12.63c-1.08-1-2.67.62-1.59,1.59,7,6.22,10.76,15.79,8,25-2.91,9.64-13.21,18.11-10.68,29a14,14,0,0,0,9.31,9.94c1.38.45,2-1.72.6-2.17Z"/><path class="cls-11" d="M255.21,264.36c1.76-15.89,5.36-30.81,16.57-42.67,9.33-9.86,21.19-9.63,30.5.26,8,8.51,12,19,14.4,30.22.86,4,1.34,8.1,2,12.41a.32.32,0,0,1,.18-.06l2.16,0q2.19,0,4.38-.15c-1.08-6-1.87-11.69-3.28-17.27-3.11-12.23-8.06-23.58-17.81-32.14-6.05-5.3-13.05-8-21.23-6.63-9,1.47-15.33,7-20.44,14.06-7.76,10.79-11.54,23.09-13.25,36.11-.4,3.08-.6,4.72-1.34,5.59h0C250.45,264.25,252.83,264.34,255.21,264.36Z"/><path class="cls-12" d="M328.54,263.69l0-.1c-2.21.11-4.43.18-6.64.18a.3.3,0,0,1-.3-.28H264.93a123.06,123.06,0,0,1-13.85-.17.32.32,0,0,1-.3-.34c-.9.72-2.45.72-5.45.72H224.58c-4.23,51-8.45,101.7-12.68,152.61H367.6c-4.35-51-8.67-101.68-13-152.62Zm-74.77,18.38a4.88,4.88,0,0,1-4.69-5.14,4.83,4.83,0,1,1,4.69,5.14Zm71.71,0a4.87,4.87,0,0,1-4.81-5,4.8,4.8,0,1,1,9.6.29A4.92,4.92,0,0,1,325.48,282.08Z"/><path class="cls-13" d="M293.55,177.6q-19.29-1.26-39.87-1.72c-22.13-.47-44.34-.18-66.4,1.19-7.22.45-14.59.53-21.54-1.47A29.6,29.6,0,0,1,144.47,147V106.8A30.55,30.55,0,0,1,175,76.25H293.55a30.56,30.56,0,0,1,30.56,30.55V147c.89,4,0,56.33,0,56.33S298.81,184.78,293.55,177.6Z"/><line class="cls-9" x1="162.06" y1="110.03" x2="289.75" y2="110.03"/><line class="cls-9" x1="162.06" y1="125.49" x2="289.75" y2="125.49"/><line class="cls-9" x1="164.35" y1="140.95" x2="292.04" y2="140.95"/></svg>