<svg id="Capa_1" data-name="Capa 1" xmlns="http://www.w3.org/2000/svg" viewBox="0 0 792 612"><defs><style>.cls-1{fill:#fff;}.cls-2{fill:#6b6835;}.cls-3{fill:#e39ca0;}.cls-4{fill:#d7812a;}.cls-5{fill:#c6c45d;}</style></defs><path class="cls-1" d="M254,129.12c-4.91.62-9.71.51-14,1.89-11.5,3.67-18.18,11.87-19.62,23.9-.55,4.55-.25,9.2-.26,13.81q0,58.82-.06,117.64,0,45.87,0,91.74,0,42.42,0,84.85a27.55,27.55,0,0,0,5.88,17.43c5.89,7.52,13.71,11.15,23.22,11.16H328.3q51.18,0,102.35-.05,61.28,0,122.55.05A28.39,28.39,0,0,0,582,462.8c0-6.06,0-12.13,0-18.19q0-36.15,0-72.29c0-.49-.06-1-.1-1.45l-.43-.17a4.52,4.52,0,0,1-.36.65c-5.6,6.86-11.23,13.69-16.78,20.6a4.47,4.47,0,0,0-.79,2.64q-.07,29,0,58.09a17.54,17.54,0,0,1-4.29,11.7c-4.87,5.75-11.23,8.26-18.64,8.27-22.95,0-45.89,0-68.84,0-3.67,0-7.34.24-11,.23-4.72,0-9.44-.24-14.16-.24q-54.61,0-109.22,0c-25.37,0-50.75.05-76.12,0-8,0-14.78-2.87-19.49-9.68-1.38-2-2.73-4-2.83-6.56-.1-2.22-.36-4.44-.37-6.66q0-50.7,0-101.41V248.2c0-3.76,0-7.52,0-11.28q0-11.82.06-23.65c0-.1.11-.2.23-.38H563.54v50.48a3.06,3.06,0,0,0,.55-.35q8.6-10.47,17.16-21a3.67,3.67,0,0,0,.68-2.13c.06-4.79,0-9.58,0-14.36q0-33.42,0-66.83A28.92,28.92,0,0,0,575.39,140c-5.52-6.89-12.87-9.73-21.32-10.41-2-.16-4,0-6.09,0v2.08c0,6.5,0,13,0,19.49a14.85,14.85,0,0,0,.56,3.92,17.94,17.94,0,1,1-33.89-1.42,11.31,11.31,0,0,0,.7-3.86c.06-5.4,0-10.8,0-16.21,0-1.29,0-2.59,0-3.86H482.6c0,4.61,0,9.1,0,13.58,0,4.71-.49,9.47,1.3,14a4.13,4.13,0,0,1,.14,1.07,17.95,17.95,0,1,1-34.41-5.18,6.1,6.1,0,0,0,.41-2.28q0-9.72,0-19.45c0-.58-.06-1.16-.09-1.8H417.25v2.22c0,5.7-.07,11.41.06,17.11a52.89,52.89,0,0,0,.88,6.22,30.78,30.78,0,0,1,.64,5.2c-.18,7.51-3.76,13-10.56,16.06s-13.26,2.11-18.87-2.7-7.48-11-5.71-18.2a20.77,20.77,0,0,0,.95-4.39c.11-6.62.06-13.24.05-19.85,0-.53-.07-1.06-.11-1.63H351.87v7c0,3.62,0,7.24,0,10.86,0,1.86-.17,3.86.43,5.55a18.75,18.75,0,0,1-.3,14.68,18,18,0,0,1-22.17,9.35c-8.5-2.88-13.87-12.38-11.49-20.95a31.92,31.92,0,0,0,1-8.6V129.69H286.65a7.29,7.29,0,0,0-.12.84c0,6.86,0,13.72,0,20.58A5.34,5.34,0,0,0,287,153a18,18,0,0,1-19.48,24.84c-9.62-1.69-16.4-10.85-14.68-20.35a52.23,52.23,0,0,0,1.11-10C253.89,141.57,254,135.69,254,129.12ZM475.83,258.81v41.33h41.23V258.81ZM310.53,366.25V325H269.25v41.26Zm-41.28,27v41.27h41.3V393.26Zm179.91-134.4H407.87v41.3h41.29Zm-69.29,41.3V258.87a9,9,0,0,0-1-.11c-12.74,0-25.48,0-38.21,0-1.81,0-2.25.81-2.25,2.45.05,12.37,0,24.75,0,37.12,0,.6.05,1.19.09,1.86Zm-.06,134.37V393.25H338.56v41.28Zm.05-68.28V325H338.61v41.26ZM281.76,127.1h0c0-8.62,0-17.23,0-25.85a15.77,15.77,0,0,0-.36-3.42c-1.74-7.87-9.92-11.86-16.51-8-4.24,2.5-6.06,6.48-6.09,11.29,0,6.41,0,12.82,0,19.23q0,16.56,0,33.12c0,7.54,6.11,13.23,13.09,12.23,5.52-.8,9.84-6.09,9.87-12.24C281.79,144.69,281.76,135.89,281.76,127.1Zm42.35-.2c0,8.74,0,17.48,0,26.21,0,5.76,3.32,10.68,8.08,12.21,7.18,2.3,14.56-3.17,14.84-11.11.13-3.87,0-7.75,0-11.62,0-5.93-.14-11.86-.14-17.79,0-7.94.17-15.88.08-23.83a15.43,15.43,0,0,0-1.24-5.79,10.83,10.83,0,0,0-15.16-5.54c-4.49,2.38-6.43,6.46-6.47,11.42C324.06,109.67,324.11,118.29,324.11,126.9Zm65.47,0q0,10.65,0,21.3c0,2.37-.07,4.74.13,7.09a11.41,11.41,0,0,0,14.85,10c4.65-1.54,7.92-6.54,7.92-12.15q0-25.77,0-51.53a18,18,0,0,0-.32-3.43C410.62,90.3,402.69,86,396,89.64c-4.4,2.39-6.48,6.35-6.46,11.41C389.6,109.67,389.58,118.28,389.58,126.9Zm88.21.3h0c0-8.3,0-16.6,0-24.9a27.17,27.17,0,0,0-.4-4.5c-1.36-7.48-9.44-11.64-16-8.21a11.87,11.87,0,0,0-6.25,8.69,17.69,17.69,0,0,0-.21,3.26c0,11.59.11,23.17.12,34.76,0,5.81-.16,11.62-.12,17.44.05,6.86,5.28,12.23,11.66,12.1,6.1-.12,11.16-5.54,11.18-12.07C477.82,144.92,477.79,136.06,477.79,127.2Zm42.53-.19h0c0,8.5,0,17,0,25.49a20.37,20.37,0,0,0,.56,4.86,11,11,0,0,0,16.46,6.86c4.15-2.52,5.83-6.51,5.84-11.24q0-23,0-46.07a62.61,62.61,0,0,0-.26-8.34c-1.11-8.09-9.39-12.6-16.27-8.89-4.34,2.34-6.3,6.25-6.32,11.11C520.29,109.53,520.32,118.27,520.32,127Z"/><path class="cls-2" d="M254,129.12c0,6.57-.06,12.45,0,18.33a52.23,52.23,0,0,1-1.11,10c-1.72,9.5,5.06,18.66,14.68,20.35A18,18,0,0,0,287,153a5.34,5.34,0,0,1-.49-1.89c0-6.86,0-13.72,0-20.58a7.29,7.29,0,0,1,.12-.84h32.68v17.86a31.92,31.92,0,0,1-1,8.6c-2.38,8.57,3,18.07,11.49,20.95A18,18,0,0,0,352,167.75a18.75,18.75,0,0,0,.3-14.68c-.6-1.69-.4-3.69-.43-5.55-.05-3.62,0-7.24,0-10.86v-7h32.71c0,.57.11,1.1.11,1.63,0,6.61.06,13.23-.05,19.85a20.77,20.77,0,0,1-.95,4.39c-1.77,7.22.11,13.41,5.71,18.2s12.13,5.74,18.87,2.7,10.38-8.55,10.56-16.06a30.78,30.78,0,0,0-.64-5.2,52.89,52.89,0,0,1-.88-6.22c-.13-5.7-.05-11.41-.06-17.11v-2.22H450c0,.64.09,1.22.09,1.8q0,9.74,0,19.45a6.1,6.1,0,0,1-.41,2.28,18,18,0,1,0,34.41,5.18,4.13,4.13,0,0,0-.14-1.07c-1.79-4.55-1.28-9.31-1.3-14,0-4.48,0-9,0-13.58h32.76c0,1.27,0,2.57,0,3.86,0,5.41.08,10.81,0,16.21a11.31,11.31,0,0,1-.7,3.86A17.94,17.94,0,1,0,548.57,155a14.85,14.85,0,0,1-.56-3.92c-.06-6.5,0-13,0-19.49v-2.08c2.14,0,4.13-.13,6.09,0,8.45.68,15.8,3.52,21.32,10.41A28.92,28.92,0,0,1,582,158.72q-.08,33.41,0,66.83c0,4.78,0,9.57,0,14.36a3.67,3.67,0,0,1-.68,2.13q-8.54,10.53-17.16,21a3.06,3.06,0,0,1-.55.35V212.89H238.77c-.12.18-.23.28-.23.38q0,11.83-.06,23.65c0,3.76,0,7.52,0,11.28V348.32q0,50.71,0,101.41c0,2.22.27,4.44.37,6.66.1,2.56,1.45,4.56,2.83,6.56,4.71,6.81,11.47,9.66,19.49,9.68,25.37.07,50.75,0,76.12,0q54.61,0,109.22,0c4.72,0,9.44.23,14.16.24,3.66,0,7.33-.23,11-.23,22.95,0,45.89,0,68.84,0,7.41,0,13.77-2.52,18.64-8.27a17.54,17.54,0,0,0,4.29-11.7q0-29,0-58.09a4.47,4.47,0,0,1,.79-2.64c5.55-6.91,11.18-13.74,16.78-20.6a4.52,4.52,0,0,0,.36-.65l.43.17c0,.48.1,1,.1,1.45q0,36.14,0,72.29c0,6.06,0,12.13,0,18.19a28.39,28.39,0,0,1-28.76,28.74q-61.28,0-122.55-.05-51.18,0-102.35.05H249.09c-9.51,0-17.33-3.64-23.22-11.16A27.55,27.55,0,0,1,220,463q0-42.42,0-84.85,0-45.87,0-91.74,0-58.83.06-117.64c0-4.61-.29-9.26.26-13.81,1.44-12,8.12-20.23,19.62-23.9C244.24,129.63,249,129.74,254,129.12Z"/><path class="cls-3" d="M475.83,258.81h41.23v41.33H475.83Z"/><path class="cls-3" d="M310.53,366.25H269.25V325h41.28Z"/><path class="cls-3" d="M269.25,393.26h41.3v41.27h-41.3Z"/><path class="cls-3" d="M449.16,258.86v41.3H407.87v-41.3Z"/><path class="cls-3" d="M379.87,300.16H338.55c0-.67-.09-1.26-.09-1.86,0-12.37,0-24.75,0-37.12,0-1.64.44-2.45,2.25-2.45,12.73,0,25.47,0,38.21,0a9,9,0,0,1,1,.11Z"/><path class="cls-3" d="M379.81,434.53H338.56V393.25h41.25Z"/><path class="cls-3" d="M379.86,366.25H338.61V325h41.25Z"/><path class="cls-4" d="M281.76,127.1c0,8.79,0,17.59,0,26.38,0,6.15-4.35,11.44-9.87,12.24-7,1-13.09-4.69-13.09-12.23q0-16.56,0-33.12c0-6.41-.06-12.82,0-19.23,0-4.81,1.85-8.79,6.09-11.29,6.59-3.88,14.77.11,16.51,8a15.77,15.77,0,0,1,.36,3.42c0,8.62,0,17.23,0,25.85Z"/><path class="cls-4" d="M324.11,126.9c0-8.61-.05-17.23,0-25.84,0-5,2-9,6.47-11.42a10.83,10.83,0,0,1,15.16,5.54A15.43,15.43,0,0,1,347,101c.09,8-.07,15.89-.08,23.83,0,5.93.1,11.86.14,17.79,0,3.87.11,7.75,0,11.62-.28,7.94-7.66,13.41-14.84,11.11-4.76-1.53-8.06-6.45-8.08-12.21C324.08,144.38,324.11,135.64,324.11,126.9Z"/><path class="cls-4" d="M389.58,126.9c0-8.62,0-17.23,0-25.85,0-5.06,2.06-9,6.46-11.41,6.66-3.61,14.59.66,16.12,8.5a18,18,0,0,1,.32,3.43q0,25.77,0,51.53c0,5.61-3.27,10.61-7.92,12.15a11.41,11.41,0,0,1-14.85-10c-.2-2.35-.12-4.72-.13-7.09Q389.57,137.55,389.58,126.9Z"/><path class="cls-4" d="M477.79,127.2c0,8.86,0,17.72,0,26.57,0,6.53-5.08,11.95-11.18,12.07-6.38.13-11.61-5.24-11.66-12.1,0-5.82.13-11.63.12-17.44,0-11.59-.09-23.17-.12-34.76a17.69,17.69,0,0,1,.21-3.26,11.87,11.87,0,0,1,6.25-8.69c6.56-3.43,14.64.73,16,8.21a27.17,27.17,0,0,1,.4,4.5c0,8.3,0,16.6,0,24.9Z"/><path class="cls-4" d="M520.32,127c0-8.74,0-17.48,0-26.22,0-4.86,2-8.77,6.32-11.11,6.88-3.71,15.16.8,16.27,8.89a62.61,62.61,0,0,1,.26,8.34q0,23,0,46.07c0,4.73-1.69,8.72-5.84,11.24a11,11,0,0,1-16.46-6.86,20.37,20.37,0,0,1-.56-4.86c-.05-8.5,0-17,0-25.49Z"/><rect class="cls-5" x="388.14" y="349.24" width="125.44" height="45.19" rx="8.48" transform="translate(355.33 -204.72) rotate(41.08)"/><rect class="cls-5" x="527.27" y="207.89" width="50.17" height="234.49" rx="9.41" transform="translate(391.69 -295.34) rotate(45)"/></svg>