<svg id="Capa_1" data-name="Capa 1" xmlns="http://www.w3.org/2000/svg" viewBox="0 0 792 612"><defs><style>.cls-1{fill:#c6c45d;}.cls-2{fill:#d7812a;}.cls-3{fill:#e39ca0;}.cls-4{fill:#e2af9c;}</style></defs><path class="cls-1" d="M252.1,206.13V114.76H364.25l4.17,24.68,8.19-5.35a78.76,78.76,0,0,1,9.53-6.69c3.82-2.28,5.06-2.59,5.88-4.24,2-4-1.56-9.62-4.21-13.81a29.91,29.91,0,0,0-6.53-7.92,30.78,30.78,0,0,0-19.7-6.71c-2.1,0-4.19,0-6.29,0q-46.32,0-92.64,0c-27.5,0-31.08,3.48-31.13,30.5-.05,26.68,0,53.36,0,80.73C238.36,206,245.25,206.37,252.1,206.13Z"/><path class="cls-2" d="M301.74,204.86c9.22.2,18.5.41,27.71-.28-3.35-2.11-5.69-5.93-6.57-12.75l141.89-82.38,55.12,95.8a.72.72,0,0,1,.53-.1,80.11,80.11,0,0,0,13.4,1.06c5.36,0,10.7-.31,16-.66-6.56-2.83-11.54-8.58-15.93-17.1-14.6-28.32-31.36-55.54-47.37-83.13-11-19-19.39-21.32-38.3-10.43-41.69,24-83.07,48.56-125,72.09-15.73,8.82-27.66,18.46-21.82,38A.7.7,0,0,1,301.74,204.86Z"/><path class="cls-3" d="M566.81,205a32.74,32.74,0,0,1-13.4-.23c-3.22.21-6.45.44-9.67.61a107.68,107.68,0,0,1-23-.73l.14.23H427.21c-28.25,0-56.51-.28-84.76.16-3.93.06-7.5-.15-10.5-1.24-10,.92-20.15.73-30.21.52a.68.68,0,0,1-.67-.58H261c-10.08,1.33-20.31.58-30.45.58a.67.67,0,0,1-.39-.13l-2.72.13-28.65,1.33V468.88H580.61v-264C575.13,204.89,570.87,204.32,566.81,205ZM506.3,297.14a90.92,90.92,0,0,0-13.22,26.71c-13.21,45.91-36.43,82.09-86.58,93.6a62.9,62.9,0,0,1-7.74,1.2c-2.59.27-5.22.29-7.83.41-22.86-.6-42.83-8.59-60-23.59-20.78-18.17-33.63-41.24-40.12-67.72-2.86-11.69-5.32-21.92-15.95-30.45-12.38-9.95-10.18-29.41,1.64-40.42a29,29,0,0,1,39.79.12c11.6,11,13.58,30.52,1.06,40.51s-9.72,19.87-6.13,31.43c13.31,42.82,45.2,71,80.23,70.75,35.52-.21,67.75-29.56,80.4-72.73,3.22-11,4.85-19.44-7.51-27.58-13.29-8.76-13.07-28.5-2.45-40.4,10.84-12.15,28.6-13.37,40.78-2.82S515.7,283.88,506.3,297.14Z"/><path class="cls-4" d="M198.7,476.14c1.88,23.53,15.41,36.52,38.84,36.8,32.94.38,65.89.1,98.84.11,68,0,136,.12,204-.07,24.76-.07,38.63-12.81,40.39-36.84Z"/></svg>