<svg id="Capa_1" data-name="Capa 1" xmlns="http://www.w3.org/2000/svg" viewBox="0 0 792 612"><defs><style>.cls-1{fill:none;}.cls-2{fill:#6b6835;}.cls-3{fill:#c6c45d;}.cls-4{fill:#d7812a;}</style></defs><path class="cls-1" d="M476.59,152c-1.88-8.9-6.93-14.82-15.19-17.68a20.91,20.91,0,0,0-6.94-.91q-23.35,0-46.71,0c-4.78,0-9.55,0-14.32,0-8.62-.05-17.73,6.14-20.53,16.7a16,16,0,0,0-.68,3.75l104.49,1.3A7.16,7.16,0,0,0,476.59,152Z"/><path class="cls-1" d="M372.32,155.44c.33,0,2.39.09,5.72.13,20.81.25,91.28.36,97.42.11a9.85,9.85,0,0,0,1.19-.2.09.09,0,0,0,0,0c0-.09,0-.17,0-.25l-104.49-1.3A7.61,7.61,0,0,0,372.32,155.44Z"/><path class="cls-2" d="M372.27,160.83a6.26,6.26,0,0,1-.08-.73q-7.72.32-15.48.91h26.36L378,161C374.66,160.92,372.6,160.88,372.27,160.83Z"/><path class="cls-3" d="M374.38,159.19c0-.28,0-.55,0-.83a16.57,16.57,0,0,1,.68-3.74c2.81-10.57,11.92-16.75,20.54-16.7,4.77,0,9.54,0,14.31,0h46.72a21,21,0,0,1,6.94.91c8.26,2.85,13.3,8.78,15.19,17.67a7.21,7.21,0,0,1,.11,3.18c0,.08,0,.16,0,.25a.07.07,0,0,0,0,.05l-.68.13h34.7a13.92,13.92,0,0,1-1.52-.22c-.08-.9-.19-1.67-.21-2.45a49.3,49.3,0,0,0-1.24-9.39c-5.81-26.26-28-43.87-52.15-43.84-20.69,0-41.37,0-62.06,0a49.2,49.2,0,0,0-6.75.48C375.27,106.61,364,113.12,355,124A57,57,0,0,0,342.21,158c0,.67.16,1.43-.69,2.15h17.39Q366.67,159.51,374.38,159.19Z"/><path class="cls-2" d="M510.62,161h-34.7a4.46,4.46,0,0,1-.51.07c-2,.09-11.2.13-23.27.14,19.89.86,39.83,1.73,60,1.73-20.16,0-40.1-.87-60-1.73-21.7,0-52.81-.06-69.07-.2H356.71c-4.82.37-9.65.81-14.5,1.35"/><path class="cls-2" d="M342.21,162.36c-1.61.18-3.23.38-4.85.58,6.47-.82,12.92-1.44,19.35-1.93H191.59c-.92,0-1.85,0-2.76,0a5.76,5.76,0,0,0-5.56,5.67c-.05.78,0,1.58,0,2.37,0,13.81,0,27.62,0,41.43,0,3.69.15,7.38.34,11.07a130.54,130.54,0,0,0,4.4,27.24c10.3,38.47,36.21,70.24,70.9,87a123.14,123.14,0,0,0,35.54,10.92,126.24,126.24,0,0,0,19,1.27q39.7,0,79.4,0c.59,0,1.17,0,1.76,0s.94-.13,1.5-.21c0-.66.1-1.18.1-1.69,0-4.22,0-8.45,0-12.67a38.3,38.3,0,0,1,.43-5.24c2.5-16.08,17.75-28,34.39-23.81,13.41,3.37,21.66,16,21.59,28.56q0,6.07,0,12.14c0,.86.06,1.72.11,2.83,1,0,1.63.1,2.3.1q41.58,0,83.16,0a115.87,115.87,0,0,0,29.33-3.9c57.14-15,98.18-69.26,98.09-131.48q0-22,0-44.07c0-.61,0-1.23,0-1.84a5.67,5.67,0,0,0-5.29-5.63c-1-.07-2,0-3,0H513.13c-.83,0-1.67,0-2.51,0"/><path class="cls-2" d="M663.84,287.71C645.2,322.2,618.1,346.08,582.37,359a132.74,132.74,0,0,1-45.66,7.76q-39.95,0-79.9,0c-.83,0-1.67,0-2.51,0a14.94,14.94,0,0,0-1.54.29c0,1.08,0,2,0,3,0,6.77,0,13.54,0,20.32a31.77,31.77,0,0,1-.49,6c-2.52,12.23-9.57,20.31-21.1,23.25s-21.34-.93-28.86-10.62a28.68,28.68,0,0,1-5.94-17.83c-.05-7.13,0-14.25,0-21.37a7.67,7.67,0,0,0-.29-3c-1,0-2-.07-3-.07h-79.4c-4.52,0-9-.11-13.55-.51a129.24,129.24,0,0,1-23-4c-37.92-10.53-67.28-33.35-88.26-68.1-1.62-2.67-3-5.48-4.54-8.21-.16-.29-.29-.67-.87-.42,0,.71-.06,1.48-.06,2.24q0,106.08,0,212.16c0,.61,0,1.23,0,1.84a5.87,5.87,0,0,0,5.49,5.78c.67,0,1.34,0,2,0H658.41c.67,0,1.34,0,2,0a5.79,5.79,0,0,0,5.28-5.69c0-.7,0-1.41,0-2.11V285.17c-.45.21-.55.23-.58.28C664.69,286.2,664.26,287,663.84,287.71Z"/><path class="cls-4" d="M424.64,322.28a12.11,12.11,0,0,0-11.84,9.82,19.46,19.46,0,0,0-.36,4.18q0,26.66,0,53.29c0,.62,0,1.24,0,1.85.27,6.09,4.76,11.28,10.45,12.06a12.16,12.16,0,0,0,13.19-9,15.48,15.48,0,0,0,.49-4.44V362.92c0-9,0-17.94,0-26.91a19.07,19.07,0,0,0-.29-3.93A12.21,12.21,0,0,0,424.64,322.28Z"/></svg>