<svg id="Capa_1" data-name="Capa 1" xmlns="http://www.w3.org/2000/svg" viewBox="0 0 235 272.5"><defs><style>.cls-1,.cls-3{fill:none;stroke:#979696;stroke-linecap:round;stroke-linejoin:round;}.cls-1{stroke-width:10px;}.cls-2.cls-3{stroke-width:9px;}</style></defs><path class="cls-1" d="M406.44,321.22H372.61V309.61a12,12,0,0,0-12-12H251.28a12,12,0,0,0-12,12v11.61H205.44a12,12,0,0,0-12,12V548.11a12,12,0,0,0,12,12h201a12,12,0,0,0,12-12V333.22A12,12,0,0,0,406.44,321.22Z" transform="translate(-188.44 -292.61)"/><path class="cls-2" d="M378.5,399.46l-6.77-5.73a9.47,9.47,0,0,0-13.3,1.11l-56.87,67.25-33.65-28.46a9.47,9.47,0,0,0-13.3,1.11l-5.73,6.78a9.47,9.47,0,0,0,1.11,13.3l38.91,32.9a9.44,9.44,0,0,0,1.71,1.93l6.78,5.73a9.47,9.47,0,0,0,13.3-1.11l68.93-81.51A9.46,9.46,0,0,0,378.5,399.46Z" transform="translate(-188.44 -292.61)"/><polyline class="cls-3" points="50.83 28.61 50.83 42.64 183.46 42.64 184.17 28.61"/></svg>